<?xml version="1.0" standalone="no"?>
<!DOCTYPE svg PUBLIC "-//W3C//DTD SVG 20010904//EN"
 "http://www.w3.org/TR/2001/REC-SVG-20010904/DTD/svg10.dtd">
<svg version="1.0" xmlns="http://www.w3.org/2000/svg"
 width="334.000000pt" height="510.000000pt" viewBox="0 0 334.000000 510.000000"
 preserveAspectRatio="xMidYMid meet">

<g transform="translate(0.000000,510.000000) scale(0.100000,-0.100000)"
fill="#74fc44" stroke="none">
<path d="M1603 4779 c-735 -71 -1225 -756 -1357 -1899 -121 -1043 86 -1928
564 -2411 184 -185 386 -296 645 -354 96 -22 368 -31 477 -16 284 38 496 141
693 336 310 306 484 762 562 1465 25 232 25 923 0 1147 -73 644 -235 1075
-511 1361 -176 183 -343 278 -588 337 -87 21 -324 48 -377 44 -9 -1 -57 -6
-108 -10z m281 -301 c143 -73 256 -329 315 -718 56 -369 75 -892 61 -1680 -19
-1089 -64 -1416 -220 -1592 -26 -30 -66 -60 -108 -80 -64 -32 -71 -33 -187
-33 -112 0 -124 2 -175 28 -105 54 -177 149 -244 322 -101 264 -141 579 -155
1224 -12 561 6 942 65 1411 64 508 134 831 206 949 38 61 110 132 162 158 91
46 202 50 280 11z"/>
</g>
</svg>
