<?xml version="1.0" standalone="no"?>
<!DOCTYPE svg PUBLIC "-//W3C//DTD SVG 20010904//EN"
 "http://www.w3.org/TR/2001/REC-SVG-20010904/DTD/svg10.dtd">
<svg version="1.0" xmlns="http://www.w3.org/2000/svg"
 width="334.000000pt" height="510.000000pt" viewBox="0 0 334.000000 510.000000"
 preserveAspectRatio="xMidYMid meet">

<g transform="translate(0.000000,510.000000) scale(0.100000,-0.100000)"
fill="#74fc44" stroke="none">
<path d="M2219 4783 c-14 -2 -221 -100 -460 -216 -239 -117 -627 -307 -863
-422 -272 -133 -434 -218 -443 -232 -13 -20 -12 -30 12 -103 27 -83 45 -110
71 -110 9 0 95 23 192 51 237 68 339 89 439 92 l84 2 34 -37 c20 -21 42 -61
52 -95 17 -55 18 -140 18 -1488 0 -1505 -1 -1543 -44 -1640 -10 -22 -31 -52
-47 -67 -57 -53 -97 -61 -374 -68 -140 -3 -263 -10 -272 -14 -10 -4 -20 -23
-24 -42 -9 -51 -1 -201 13 -215 9 -9 154 -9 613 -2 377 6 812 6 1165 0 453 -8
567 -7 580 3 23 19 22 232 -2 251 -12 11 -74 15 -262 19 -239 5 -247 6 -291
30 -63 36 -87 84 -100 201 -11 103 -12 2928 -1 3604 3 220 3 416 -1 435 -6 31
-40 72 -57 69 -3 -1 -18 -4 -32 -6z"/>
</g>
</svg>
