<?xml version="1.0" standalone="no"?>
<!DOCTYPE svg PUBLIC "-//W3C//DTD SVG 20010904//EN"
 "http://www.w3.org/TR/2001/REC-SVG-20010904/DTD/svg10.dtd">
<svg version="1.0" xmlns="http://www.w3.org/2000/svg"
 width="334.000000pt" height="510.000000pt" viewBox="0 0 334.000000 510.000000"
 preserveAspectRatio="xMidYMid meet">

<g transform="translate(0.000000,510.000000) scale(0.100000,-0.100000)"
fill="#74fc44" stroke="none">
<path d="M1595 4779 c-531 -44 -967 -343 -1226 -842 -81 -156 -102 -216 -85
-241 17 -27 146 -76 168 -65 10 5 44 49 75 96 158 237 384 403 618 454 83 18
255 16 340 -5 192 -46 366 -183 457 -362 111 -216 140 -459 92 -774 -87 -569
-441 -1132 -1251 -1992 -107 -114 -281 -289 -387 -389 -105 -100 -226 -215
-268 -256 -88 -84 -108 -127 -88 -189 19 -55 38 -59 218 -44 204 17 1906 26
2083 11 144 -12 189 -32 229 -101 25 -43 29 -45 76 -48 37 -2 56 2 72 15 14
12 105 236 272 672 202 526 250 659 242 675 -14 31 -105 78 -143 74 -28 -3
-39 -15 -94 -103 -165 -263 -301 -379 -512 -437 -76 -21 -98 -22 -730 -26
-551 -3 -653 -1 -653 10 0 14 77 84 485 443 648 571 939 886 1158 1253 178
298 262 566 274 873 9 225 -18 377 -96 559 -99 230 -298 448 -531 582 -137 79
-345 140 -535 158 -120 11 -115 11 -260 -1z"/>
</g>
</svg>
