<?xml version="1.0" standalone="no"?>
<!DOCTYPE svg PUBLIC "-//W3C//DTD SVG 20010904//EN"
 "http://www.w3.org/TR/2001/REC-SVG-20010904/DTD/svg10.dtd">
<svg version="1.0" xmlns="http://www.w3.org/2000/svg"
 width="334.000000pt" height="510.000000pt" viewBox="0 0 334.000000 510.000000"
 preserveAspectRatio="xMidYMid meet">

<g transform="translate(0.000000,510.000000) scale(0.100000,-0.100000)"
fill="#74fc44" stroke="none">
<path d="M1595 4780 c-479 -40 -871 -304 -1089 -733 -54 -105 -108 -259 -126
-356 -14 -76 -2 -91 99 -120 44 -13 87 -21 95 -18 8 3 48 75 90 159 123 251
242 387 416 478 99 51 180 70 305 70 180 0 305 -48 420 -164 145 -146 209
-347 185 -582 -26 -252 -127 -443 -303 -578 -137 -104 -268 -162 -490 -216
-146 -36 -167 -52 -167 -131 0 -28 5 -59 10 -70 15 -26 72 -53 160 -74 351
-84 619 -255 766 -491 157 -252 207 -640 123 -953 -79 -294 -295 -528 -552
-597 -80 -22 -222 -28 -305 -14 -91 15 -198 67 -244 119 -19 21 -59 84 -89
141 -96 183 -216 286 -363 310 -142 23 -267 -60 -326 -216 -100 -268 139 -524
575 -614 163 -34 287 -43 519 -37 162 3 253 10 341 26 283 50 524 135 730 256
443 260 709 645 757 1093 26 254 -53 519 -223 738 -67 88 -221 227 -326 298
-145 96 -326 174 -480 207 -29 6 -53 14 -53 17 0 4 26 20 58 37 31 16 106 62
165 102 336 224 530 467 609 761 15 58 21 109 21 207 1 114 -3 141 -26 218
-50 161 -126 288 -244 405 -192 190 -444 295 -778 322 -131 11 -129 11 -260 0z"/>
</g>
</svg>
