<?xml version="1.0" standalone="no"?>
<!DOCTYPE svg PUBLIC "-//W3C//DTD SVG 20010904//EN"
 "http://www.w3.org/TR/2001/REC-SVG-20010904/DTD/svg10.dtd">
<svg version="1.0" xmlns="http://www.w3.org/2000/svg"
 width="334.000000pt" height="510.000000pt" viewBox="0 0 334.000000 510.000000"
 preserveAspectRatio="xMidYMid meet">

<g transform="translate(0.000000,510.000000) scale(0.100000,-0.100000)"
fill="#74fc44" stroke="none">
<path d="M2683 4780 c-46 -11 -74 -31 -125 -92 -102 -120 -2436 -3068 -2475
-3126 -45 -67 -64 -120 -65 -183 -1 -52 24 -86 80 -112 47 -22 49 -22 950 -25
l902 -3 0 -497 c0 -381 3 -503 13 -522 l13 -25 402 -3 c391 -2 402 -2 422 18
20 20 20 32 20 524 l0 504 230 4 c223 3 230 4 252 26 23 22 23 25 23 288 l0
266 -24 19 c-21 17 -42 19 -252 19 l-229 0 -2 1423 c-3 1347 -4 1424 -21 1455
-10 18 -29 37 -43 42 -28 11 -26 11 -71 0z m-735 -1382 c9 -9 12 -195 12 -775
l0 -763 -605 0 c-592 0 -605 0 -625 20 -26 26 -25 49 3 92 40 58 1107 1391
1134 1416 26 24 62 29 81 10z"/>
</g>
</svg>
