<?xml version="1.0" standalone="no"?>
<!DOCTYPE svg PUBLIC "-//W3C//DTD SVG 20010904//EN"
 "http://www.w3.org/TR/2001/REC-SVG-20010904/DTD/svg10.dtd">
<svg version="1.0" xmlns="http://www.w3.org/2000/svg"
 width="334.000000pt" height="510.000000pt" viewBox="0 0 334.000000 510.000000"
 preserveAspectRatio="xMidYMid meet">

<g transform="translate(0.000000,510.000000) scale(0.100000,-0.100000)"
fill="#74fc44" stroke="none">
<path d="M2843 5049 c-6 -8 -35 -59 -64 -113 -64 -118 -122 -186 -187 -218
l-47 -23 -836 -5 c-792 -5 -838 -6 -857 -23 -11 -10 -23 -28 -25 -40 -16 -66
-259 -2169 -253 -2191 10 -41 48 -53 195 -60 338 -16 656 -97 858 -218 73 -44
205 -168 253 -237 61 -90 110 -198 138 -300 23 -87 26 -113 26 -276 -1 -162
-3 -190 -27 -277 -14 -54 -47 -139 -73 -190 -40 -77 -65 -110 -144 -188 -76
-76 -113 -104 -185 -142 -172 -89 -374 -128 -565 -108 -169 17 -266 48 -392
124 -214 130 -366 163 -451 96 -32 -25 -64 -91 -72 -151 -24 -167 154 -307
490 -387 103 -25 125 -27 345 -26 255 0 320 8 539 64 600 156 1075 577 1251
1109 52 158 72 284 71 461 -2 571 -289 1006 -814 1232 -208 90 -607 171 -949
194 -60 4 -108 9 -108 11 0 2 25 164 55 360 30 196 55 358 55 360 0 2 327 3
728 3 408 0 760 5 802 10 81 11 114 29 142 76 9 16 78 247 153 513 152 534
149 518 77 548 -53 23 -115 28 -129 12z"/>
</g>
</svg>
