<?xml version="1.0" standalone="no"?>
<!DOCTYPE svg PUBLIC "-//W3C//DTD SVG 20010904//EN"
 "http://www.w3.org/TR/2001/REC-SVG-20010904/DTD/svg10.dtd">
<svg version="1.0" xmlns="http://www.w3.org/2000/svg"
 width="334.000000pt" height="510.000000pt" viewBox="0 0 334.000000 510.000000"
 preserveAspectRatio="xMidYMid meet">

<g transform="translate(0.000000,510.000000) scale(0.100000,-0.100000)"
fill="#74fc44" stroke="none">
<path d="M2644 4779 c-158 -23 -483 -132 -700 -234 -441 -208 -871 -566 -1156
-962 -317 -440 -510 -953 -558 -1482 -16 -166 -8 -516 15 -656 48 -304 149
-564 318 -817 207 -311 452 -469 812 -523 116 -17 381 -20 505 -5 347 43 619
181 893 453 272 270 407 650 408 1147 1 318 -69 574 -217 797 -184 278 -468
439 -833 473 -281 26 -580 -52 -799 -207 -42 -30 -68 -42 -81 -38 -18 5 -18 9
-5 68 38 161 137 406 240 590 294 528 786 1007 1191 1159 72 26 140 88 149
134 8 43 -15 80 -61 100 -38 15 -34 15 -121 3z m-793 -2282 c200 -101 330
-356 386 -761 23 -167 23 -575 0 -736 -50 -337 -148 -530 -311 -610 -122 -60
-278 -66 -383 -15 -293 143 -435 735 -383 1593 15 249 45 360 120 445 77 88
175 118 380 114 125 -2 139 -4 191 -30z"/>
</g>
</svg>
