<?xml version="1.0" standalone="no"?>
<!DOCTYPE svg PUBLIC "-//W3C//DTD SVG 20010904//EN"
 "http://www.w3.org/TR/2001/REC-SVG-20010904/DTD/svg10.dtd">
<svg version="1.0" xmlns="http://www.w3.org/2000/svg"
 width="334.000000pt" height="510.000000pt" viewBox="0 0 334.000000 510.000000"
 preserveAspectRatio="xMidYMid meet">

<g transform="translate(0.000000,510.000000) scale(0.100000,-0.100000)"
fill="#74fc44" stroke="none">
<path d="M633 4933 c-17 -2 -36 -10 -41 -16 -12 -14 -452 -1313 -452 -1332 0
-18 56 -59 95 -72 54 -16 71 -6 150 93 107 133 174 196 252 237 129 67 125 67
1068 67 465 0 845 -2 845 -4 0 -3 -55 -92 -121 -198 -450 -717 -1375 -2236
-1508 -2476 -125 -227 -227 -487 -251 -643 -14 -88 -4 -171 31 -264 31 -82
121 -173 204 -205 73 -28 196 -37 274 -20 175 38 325 177 412 381 16 38 74
234 129 436 205 762 342 1183 571 1756 132 330 242 571 424 932 166 329 288
554 402 742 92 153 123 218 123 263 0 41 -7 53 -37 69 -16 8 -318 11 -1145 11
-1182 0 -1220 2 -1268 45 -16 15 -20 31 -20 90 0 56 -4 75 -17 87 -20 18 -73
27 -120 21z"/>
</g>
</svg>
