<?xml version="1.0" standalone="no"?>
<!DOCTYPE svg PUBLIC "-//W3C//DTD SVG 20010904//EN"
 "http://www.w3.org/TR/2001/REC-SVG-20010904/DTD/svg10.dtd">
<svg version="1.0" xmlns="http://www.w3.org/2000/svg"
 width="334.000000pt" height="510.000000pt" viewBox="0 0 334.000000 510.000000"
 preserveAspectRatio="xMidYMid meet">

<g transform="translate(0.000000,510.000000) scale(0.100000,-0.100000)"
fill="#74fc44" stroke="none">
<path d="M1670 4783 c-596 -41 -1063 -322 -1298 -780 -96 -187 -132 -332 -132
-531 1 -432 175 -683 762 -1101 59 -42 108 -78 108 -81 0 -3 -35 -27 -78 -55
-522 -338 -766 -719 -765 -1195 0 -117 4 -147 27 -223 124 -411 479 -652 1056
-718 155 -17 477 -6 605 21 320 68 561 195 770 404 258 258 380 558 360 881
-24 402 -173 698 -477 951 -97 81 -272 199 -391 264 -43 23 -76 44 -75 46 2 1
60 38 130 82 414 259 611 487 690 797 14 57 21 127 25 245 5 147 3 174 -15
242 -28 100 -60 172 -113 250 -189 279 -536 461 -949 498 -111 10 -145 10
-240 3z m199 -328 c91 -24 161 -65 230 -134 159 -159 230 -382 218 -690 -8
-212 -55 -366 -160 -529 -67 -104 -212 -257 -277 -292 -11 -6 -60 18 -168 83
-324 196 -476 326 -549 474 -23 45 -47 108 -53 140 -16 77 -7 346 14 432 69
273 233 464 442 515 77 19 235 19 303 1z m-374 -2411 c264 -154 417 -266 546
-401 172 -180 231 -357 209 -625 -25 -300 -139 -499 -342 -596 -102 -49 -174
-65 -298 -66 -109 0 -181 18 -281 70 -191 100 -327 277 -386 502 -22 83 -26
119 -26 247 -1 265 60 476 201 690 49 73 217 255 236 255 6 0 70 -34 141 -76z"/>
</g>
</svg>
