<?xml version="1.0" standalone="no"?>
<!DOCTYPE svg PUBLIC "-//W3C//DTD SVG 20010904//EN"
 "http://www.w3.org/TR/2001/REC-SVG-20010904/DTD/svg10.dtd">
<svg version="1.0" xmlns="http://www.w3.org/2000/svg"
 width="334.000000pt" height="510.000000pt" viewBox="0 0 334.000000 510.000000"
 preserveAspectRatio="xMidYMid meet">

<g transform="translate(0.000000,510.000000) scale(0.100000,-0.100000)"
fill="#74fc44" stroke="none">
<path d="M1472 4779 c-317 -28 -635 -180 -868 -413 -299 -300 -493 -942 -418
-1387 18 -109 79 -299 124 -390 158 -315 425 -521 756 -585 105 -20 336 -23
464 -5 175 25 352 82 448 146 58 38 92 45 92 19 0 -33 -41 -217 -74 -331 -194
-664 -696 -1291 -1206 -1503 -99 -41 -140 -84 -140 -144 0 -28 7 -52 19 -67
18 -22 26 -24 118 -23 81 1 119 8 221 38 343 101 616 243 921 478 148 115 418
388 524 528 370 494 606 1125 668 1782 17 183 7 486 -20 607 -92 413 -324 809
-594 1015 -189 144 -399 213 -715 236 -153 11 -186 11 -320 -1z m341 -284
c112 -55 206 -187 262 -365 60 -193 85 -446 85 -869 0 -398 -21 -604 -71 -702
-57 -113 -240 -188 -430 -177 -304 18 -538 376 -600 918 -15 138 -7 473 16
600 40 221 109 375 220 486 110 111 197 145 360 141 87 -3 107 -7 158 -32z"/>
</g>
</svg>
